# xmcd
#
# Track frame offsets:
#	150
#	14765
#	30457
#	59627
#	77142
#	93662
#	105472
#	117599
#	133757
#	153368
#	168558
#	184648
#	196324
#	207644
#	224112
#	238320
#	251740
#	276316
#	291772
#	308194
#
# Disc length: 4248 seconds
#
# Revision: 1
# Processed by: cddbd v1.5.2PL0 Copyright (c) Steve Scherf et al.
# Submitted via: audiograbber 1.83.01
#
DISCID=3f109614
DTITLE=Paul Blissett - fire+soul
DYEAR=2007
DGENRE=jazz instrumental
TTITLE0=Forty miles of bad road
TTITLE1=Unchained melody
TTITLE2=Quinella
TTITLE3=Annette
TTITLE4=3:30 Blues
TTITLE5=I love how you love me
TTITLE6=Ramrod
TTITLE7=Last date
TTITLE8=Rebel rouser
TTITLE9=Crazy arms
TTITLE10=Sleepwalk
TTITLE11=Yellow bird
TTITLE12=Londonderry air
TTITLE13=Hard times
TTITLE14=Spring is nearly here
TTITLE15=Maria Elena
TTITLE16=Honky Tonk
TTITLE17=Sweet dreams
TTITLE18=Blueberry Hill
TTITLE19=Piano Concerto#1
EXTD=
EXTT0=
EXTT1=
EXTT2=
EXTT3=
EXTT4=
EXTT5=
EXTT6=
EXTT7=
EXTT8=
EXTT9=
EXTT10=
EXTT11=
EXTT12=
EXTT13=
EXTT14=
EXTT15=
EXTT16=
EXTT17=
EXTT18=
EXTT19=
PLAYORDER=
